<svg width="46" height="41" viewBox="0 0 46 41" fill="none" xmlns="http://www.w3.org/2000/svg">
<path d="M46 40.1491V38.9386H42.2675V34.0965H40.8553V40.25H46V40.1491ZM27.3377 40.1491H32.5833V38.9386H28.75V37.6272H32.2807V36.5175H28.75V35.307H32.5833V34.0965H27.3377V40.1491ZM15.8377 37.1228V35.2061H17.8553C18.1579 35.2061 18.3596 35.2061 18.5614 35.307C18.7632 35.4079 18.864 35.5088 18.864 35.6096C18.9649 35.7105 18.9649 35.9123 18.9649 36.114C18.9649 36.4167 18.864 36.7193 18.6623 36.8202C18.4605 36.921 18.1579 37.0219 17.8553 37.0219H15.8377V37.1228ZM14.4254 34.0965V40.25H15.8377V38.3333H17.9561C18.7632 38.3333 19.3684 38.1316 19.7719 37.8289C20.1754 37.5263 20.3772 36.921 20.3772 36.2149C20.3772 35.7105 20.2763 35.2061 20.0746 34.9035C19.8728 34.6009 19.6711 34.3991 19.2675 34.1974C18.9649 34.0965 18.4605 33.9956 17.9561 33.9956H14.4254V34.0965ZM2.42105 38.8377C2.11842 38.7368 1.91667 38.5351 1.71491 38.2324C1.61404 37.9298 1.51316 37.6272 1.51316 37.1228C1.51316 36.7193 1.61404 36.3158 1.71491 36.0131C1.81579 35.7105 2.01754 35.5088 2.32018 35.4079C2.62281 35.307 3.02632 35.2061 3.5307 35.2061C4.03509 35.2061 4.53947 35.307 4.84211 35.4079C5.14474 35.5088 5.34649 35.7105 5.44737 36.0131C5.54825 36.3158 5.64912 36.6184 5.64912 37.1228C5.64912 37.6272 5.54825 37.9298 5.44737 38.2324C5.34649 38.5351 5.14474 38.7368 4.74123 38.8377C4.64035 39.0395 4.13596 39.0395 3.63158 39.0395C3.12719 39.0395 2.72368 39.0395 2.42105 38.8377ZM5.64912 39.9474C6.15351 39.7456 6.55702 39.3421 6.85965 38.8377C7.16228 38.3333 7.26316 37.7281 7.26316 37.0219C7.26316 36.3158 7.16228 35.7105 6.85965 35.2061C6.55702 34.7017 6.25439 34.3991 5.64912 34.0965C5.14474 33.8947 4.4386 33.7939 3.63158 33.7939C2.82456 33.7939 2.11842 33.8947 1.61404 34.0965C1.10965 34.2982 0.70614 34.7017 0.403509 35.2061C0.100877 35.7105 0 36.3158 0 37.0219C0 37.7281 0.100877 38.3333 0.403509 38.8377C0.70614 39.3421 1.00877 39.6447 1.61404 39.9474C2.11842 40.1491 2.82456 40.25 3.63158 40.25C4.4386 40.3509 5.14474 40.1491 5.64912 39.9474Z" fill="#1D1D1B"/>
<path d="M40.3506 15.2325L37.0216 15.0307H36.6181C36.6181 14.6272 36.6181 14.3246 36.6181 13.9211C36.6181 6.25439 30.3637 0 22.6971 0C16.14 0 10.5918 4.64035 9.17952 10.7939H8.77601H6.1532C5.95145 10.7939 5.85057 10.8947 5.74969 10.9956L4.94267 12.1053C4.94267 12.1053 4.8418 12.2061 4.8418 12.307C4.8418 12.4079 4.94267 12.6096 5.14443 12.6096L8.47338 12.8114H8.87688C8.87688 13.2149 8.87688 13.5175 8.87688 13.9211C8.87688 21.5877 15.1313 27.8421 22.7979 27.8421C29.355 27.8421 34.9032 23.2018 36.3155 17.0482H36.719H39.3418C39.5436 17.0482 39.6444 16.9474 39.7453 16.8465L40.5523 15.7368C40.5523 15.7368 40.6532 15.636 40.6532 15.5351C40.6532 15.3333 40.5523 15.2325 40.3506 15.2325ZM22.7979 1.51316C29.5567 1.51316 35.105 7.0614 35.105 13.8202C35.105 14.1228 35.105 14.5263 35.105 14.8289L24.8155 14.2237L29.2541 11.1974C29.355 11.1974 29.355 11.0965 29.355 10.9956C29.355 10.8947 29.2541 10.7939 29.1532 10.7939H10.9953C12.3067 5.44737 17.0479 1.51316 22.7979 1.51316ZM22.7979 26.1272C16.0392 26.1272 10.4909 20.5789 10.4909 13.8202C10.4909 13.5175 10.4909 13.114 10.4909 12.8114L20.7804 13.4167L16.3418 16.443C16.2409 16.443 16.2409 16.5439 16.2409 16.6447C16.2409 16.7456 16.3418 16.8465 16.4427 16.8465H34.6006C33.2892 22.193 28.4471 26.1272 22.7979 26.1272Z" fill="#1D1D1B"/>
</svg>
